<?xml version="1.0" encoding="UTF-8"?>
<svg xmlns="http://www.w3.org/2000/svg" xmlns:xlink="http://www.w3.org/1999/xlink" viewBox="0 0 575.06 469.29">
  <defs>
    <radialGradient id="uuid-018fb6ea-95dd-48c9-ab96-646070403e3b" data-name="ѓрадґ№нт без назви 5" cx="291.11" cy="585.22" fx="291.11" fy="585.22" r="232.42" gradientTransform="translate(0 315.16) scale(1 .19)" gradientUnits="userSpaceOnUse">
      <stop offset="0" stop-color="#757575"/>
      <stop offset=".27" stop-color="#a2a2a2"/>
      <stop offset=".6" stop-color="#d4d4d4"/>
      <stop offset=".86" stop-color="#f3f3f3"/>
      <stop offset="1" stop-color="#fff"/>
    </radialGradient>
    <linearGradient id="uuid-4f457bf0-1474-4376-8956-7f564fa36976" x1="207.36" y1="386.87" x2="367.69" y2="386.87" gradientUnits="userSpaceOnUse">
      <stop offset="0" stop-color="#6d6d6c"/>
      <stop offset=".04" stop-color="#858585"/>
      <stop offset=".1" stop-color="#9d9d9d"/>
      <stop offset=".16" stop-color="#b0b0af"/>
      <stop offset=".23" stop-color="#bdbdbd"/>
      <stop offset=".32" stop-color="#c4c4c4"/>
      <stop offset=".51" stop-color="#c7c7c7"/>
      <stop offset=".63" stop-color="#c3c3c3"/>
      <stop offset=".73" stop-color="#bababa"/>
      <stop offset=".82" stop-color="#aaaaa9"/>
      <stop offset=".91" stop-color="#939392"/>
      <stop offset=".98" stop-color="#767675"/>
      <stop offset="1" stop-color="#6f6f6e"/>
    </linearGradient>
    <linearGradient id="uuid-20ed8f5e-61ed-4c46-97c6-a074633214af" x1="287.53" y1="435.1" x2="287.53" y2="332.97" gradientUnits="userSpaceOnUse">
      <stop offset="0" stop-color="#b4b4b3"/>
      <stop offset=".12" stop-color="#ababaa"/>
      <stop offset=".15" stop-color="#a2a1a1"/>
      <stop offset=".2" stop-color="#969595"/>
      <stop offset=".25" stop-color="#929191"/>
      <stop offset=".29" stop-color="#a6a5a5"/>
      <stop offset=".33" stop-color="#bcbcbb"/>
      <stop offset=".44" stop-color="#a5a5a4"/>
      <stop offset=".67" stop-color="#6b6b6a"/>
      <stop offset=".82" stop-color="#414140"/>
      <stop offset=".98" stop-color="#666565"/>
    </linearGradient>
    <radialGradient id="uuid-5fe7ff8e-3eee-492f-8b99-ee729333de8b" cx="346.82" cy="351.31" fx="346.82" fy="351.31" r="238.62" gradientUnits="userSpaceOnUse">
      <stop offset="0" stop-color="#d6d6d6"/>
      <stop offset="1" stop-color="#969696"/>
    </radialGradient>
  </defs>
  <g isolation="isolate">
    <g id="uuid-1b13f910-ed75-433b-ad55-bded8806cb77" data-name="Слой 2">
      <g id="uuid-3f483f2d-ee18-481b-af02-27fa9a3f0e48" data-name="ар 1">
        <g>
          <ellipse cx="291.11" cy="425.47" rx="232.4" ry="43.81" fill="url(#uuid-018fb6ea-95dd-48c9-ab96-646070403e3b)" mix-blend-mode="multiply" stroke-width="0"/>
          <path d="M363.3,424.58c-12.75-12.58-14.41-10.13-17.6-16.71-3.19-6.58-5.03-58.71-5.03-58.71,0-6.69-4.64-12.22-10.69-13.19v-.17h-81.73c-7.17,0-12.98,5.98-12.98,13.35,0,0-1.9,52.13-5.19,58.71-3.29,6.58-5,4.12-18.18,16.71-13.17,12.58,5.81,13.35,12.98,13.35h125.85c6.94,0,25.32-.77,12.57-13.35Z" fill="url(#uuid-4f457bf0-1474-4376-8956-7f564fa36976)" stroke-width="0"/>
          <path d="M363.3,421.74c-12.75-12.58-14.41-10.13-17.6-16.71-3.19-6.58-5.03-58.71-5.03-58.71,0-6.69-4.64-12.22-10.69-13.19v-.17h-81.73c-7.17,0-12.98,5.98-12.98,13.35,0,0-1.9,52.13-5.19,58.71-3.29,6.58-5,4.12-18.18,16.71-13.17,12.58,5.81,13.35,12.98,13.35h125.85c6.94,0,25.32-.77,12.57-13.35Z" fill="url(#uuid-20ed8f5e-61ed-4c46-97c6-a074633214af)" stroke-width="0"/>
          <g opacity=".15">
            <path d="M211.9,421.74c-13.17,12.58,5.81,13.35,12.98,13.35h4.77v-29.21c-3.04,5.66-5.18,3.85-17.75,15.86Z" fill="#f6f6ff" stroke-width="0"/>
            <path d="M363.08,421.74c-12.57-12.01-14.71-10.2-17.74-15.86v29.21s4.75,0,4.75,0c7.17,0,26.15-.77,12.98-13.35Z" fill="#f6f6ff" stroke-width="0"/>
          </g>
          <path d="M562.96,1.47H12.1C6.23,1.47,1.47,6.23,1.47,12.1v347.2c0,5.87,4.76,10.63,10.63,10.63h550.87c5.87,0,10.63-4.76,10.63-10.63V12.1c0-5.87-4.76-10.63-10.63-10.63ZM564.43,328.7H10.63V9.99h553.8v318.71Z" fill="#1d1d1b" stroke-width="0"/>
          <path d="M562.96,371.4H12.1c-6.67,0-12.1-5.43-12.1-12.1V12.1C0,5.43,5.43,0,12.1,0h550.87c6.67,0,12.1,5.43,12.1,12.1v347.2c0,6.67-5.43,12.1-12.1,12.1ZM12.1,2.94C7.05,2.94,2.94,7.05,2.94,12.1v347.2c0,5.05,4.11,9.16,9.16,9.16h550.87c5.05,0,9.16-4.11,9.16-9.16V12.1c0-5.05-4.11-9.16-9.16-9.16H12.1Z" fill="#868686" stroke-width="0"/>
          <path d="M1.47,338.01v21.29c0,5.87,4.76,10.63,10.63,10.63h550.87c5.87,0,10.63-4.76,10.63-10.63v-21.29H1.47Z" fill="url(#uuid-5fe7ff8e-3eee-492f-8b99-ee729333de8b)" stroke-width="0"/>
          <g>
            <path d="M289.84,6.29c0,1.28-1.03,2.31-2.31,2.31s-2.31-1.03-2.31-2.31,1.03-2.31,2.31-2.31,2.31,1.03,2.31,2.31Z" fill="#1d1d1b" stroke-width="0"/>
            <path d="M287.53,9.19c-1.6,0-2.9-1.3-2.9-2.9s1.3-2.9,2.9-2.9,2.9,1.3,2.9,2.9-1.3,2.9-2.9,2.9ZM287.53,4.57c-.95,0-1.72.77-1.72,1.72s.77,1.72,1.72,1.72,1.72-.77,1.72-1.72-.77-1.72-1.72-1.72Z" fill="#3c3c3b" stroke-width="0"/>
          </g>
        </g>
        <image width="2313" height="1279" transform="translate(9.69 9.99) scale(.24)" xlink:href="Ресурс 8-1.png"/>
      </g>
    </g>
  </g>
</svg>